<svg width="182" height="216" viewBox="0 0 182 216" fill="none" xmlns="http://www.w3.org/2000/svg">
<path d="M179.64 87.006C170.118 46.864 174.971 29.873 174.971 29.873C174.971 29.873 118.026 17.924 90.9525 0C90.8905 0.035 90.8285 0.0710028 90.7655 0.106003C90.7035 0.0710028 90.6405 0.035 90.5785 0C63.5055 17.924 6.5595 29.873 6.5595 29.873C6.5595 29.873 11.4135 46.863 1.89153 87.006C-3.47947 109.65 -3.70948 175.064 90.7645 215.436C185.241 175.064 185.012 109.65 179.64 87.006ZM67.1115 116.54C64.9285 124.797 55.6295 131.007 44.4635 131.007C33.1965 131.007 23.8195 124.687 21.7475 116.319H21.8675L21.7515 116.283L37.0785 66.654H40.2035L24.8655 116.319H64.0545L48.7165 66.654H51.8415L67.2355 116.501L67.1115 116.54ZM112.176 175.319H69.3565V164.241H85.2895V62.049H31.5175V56.821H85.2895V49.602H96.2435V56.821H150.015V62.049H96.2435V164.241H112.176V175.319ZM137.071 131.007C125.905 131.007 116.605 124.797 114.423 116.54L114.298 116.501L129.692 66.654H132.817L117.479 116.319H156.669L141.33 66.654H144.455L159.783 116.283L159.666 116.319H159.786C157.713 124.687 148.337 131.007 137.071 131.007Z" fill="white"/>
</svg>
