<svg width="820" height="934" viewBox="0 0 820 934" fill="none" xmlns="http://www.w3.org/2000/svg">
<path d="M293.466 42.5333C292.4 43.2 291.333 46.8 290.933 51.0666C290.4 58.1333 290.133 58.4 286 59.2C283.733 59.7333 280.4 61.4666 278.8 63.2C276 66.2666 275.733 67.4666 276.266 79.7333C276.666 92.2666 276.933 93.6 282.4 104.133C287.733 114.8 288 115.867 288 126.933C288 138.933 284.8 151.2 280.266 156.267C277.733 159.2 276.266 159.333 273.066 156.4C271.2 154.667 270.266 154.533 268.933 155.867C267.066 157.733 268.933 161.467 272.933 163.2C275.466 164.4 275.066 165.2 266.8 172.933C259.6 179.733 257.866 180.8 257.6 178.667C256.933 174.667 254.133 173.067 250.266 174.533C244.4 176.8 242.266 183.867 245.6 189.333C247.066 191.6 246.4 196.133 242.266 216.4C239.466 229.733 232.8 262.133 227.466 288.267C222.133 314.533 216.933 336.8 216 338C212.4 342.4 219.733 350.4 232 355.333C241.466 359.067 258 358.4 267.733 354C278.666 349.067 287.333 340 282.666 338.4C281.333 338 278.266 322.667 272.666 289.333C270.8 278 266.266 252.267 262.533 232.133C258.933 212 256.133 194.8 256.533 194C256.8 193.067 259.066 192 261.6 191.467C264.533 190.933 268.133 188.267 272.666 183.467C280.933 174.533 286 173.067 295.2 177.2C300.933 179.733 301.867 180.8 306.533 191.067C309.467 197.067 312.667 202.933 313.867 203.867C315.067 204.8 316 207.333 316 209.333C316 211.2 311.733 234.4 306.667 260.8C291.466 338.533 289.333 349.867 289.333 351.867C289.333 352.933 288.4 354.933 287.2 356.133C285.2 358.4 285.2 358.8 287.066 361.867C292.266 369.733 306 376 318.133 376C331.067 376 344.4 371.333 350.533 364.8C353.467 361.733 353.6 360.933 352.266 356.4C350.8 351.333 343.067 308.533 339.467 284C338.4 277.067 335.067 256.933 332 239.333C327.867 215.2 326.8 206.8 327.867 205.067C331.333 199.467 328.267 191.733 322.533 191.333C320.133 191.2 318.267 189.067 314.667 182.8C312.133 178.267 308.4 173.067 306.533 171.067L303.2 167.467L307.2 163.867C312 159.6 311.2 157.733 305.067 159.467C302.133 160.4 300.533 161.867 299.867 164C299.2 166.8 298.933 166.933 298.133 165.067C297.6 163.867 297.733 161.867 298.4 160.533C299.067 159.333 299.2 156.267 298.533 153.467C295.333 138.533 294.666 133.867 294.8 128.933C294.933 123.467 294.933 123.467 301.867 137.467C310.667 155.467 315.333 161.2 327.467 169.467C332.933 173.067 340.8 178.933 344.933 182.267C349.2 185.733 358.8 192.667 366.266 197.6C376.4 204.4 381.866 209.067 387.333 216C393.466 223.733 395.466 225.333 399.733 226C408.666 227.6 408.533 228.267 398.533 229.867C392.4 230.933 387.066 236.133 385.2 243.067C383.333 250.267 384.4 255.2 389.866 263.467C393.466 268.8 394.133 270.667 393.066 272.667C390.533 277.067 394.133 292.8 398.933 298.8C403.066 304 403.2 304 413.2 304.267L423.333 304.533L414 305.2L404.666 306L404.266 310.267L403.866 314.667L412.266 314C416.933 313.6 423.333 312.933 426.666 312.667C430.266 312.267 431.866 312.533 430.666 313.2C429.6 313.867 423.6 314.667 417.333 315.2C404.4 316.267 401.066 317.867 397.333 325.333C394.4 331.2 394 335.867 396.133 342.667C396.8 345.2 398.4 350.4 399.333 354.267C402.8 366.8 410.8 385.6 420.666 404.667C433.6 429.467 439.733 449.067 441.866 472.667L442.666 480.667L440.133 470C434.933 448.4 428.8 432.133 415.866 406.667C408.666 392.4 400.933 375.6 398.666 369.333C396.4 363.067 393.866 357.467 393.2 356.667C392.4 355.867 392 360.8 392.266 370.8L392.533 386.267L388.266 392C385.866 395.2 384 398.8 384 400C384 401.2 388.4 408.533 393.733 416.4C407.6 437.067 416 451.067 416 453.333C416 454.4 414.533 452.667 412.666 449.467C407.2 439.867 383.333 410.667 381.066 410.667C379.333 410.667 374.933 415.867 373.2 420C372.266 422.267 372.266 424.933 373.466 428.933C374.666 433.333 374.666 436.4 373.2 443.2C371.2 453.467 371.2 453.467 383.866 461.867C395.866 470 405.333 479.6 409.733 488.133C413.6 496 418.666 512.267 418.533 516.667C418.533 518.133 417.466 515.733 416.133 511.333C410.4 491.333 398.666 476.133 382.8 468.267C370.666 462.267 369.733 462.4 368.533 471.6C367.333 481.333 368.933 526.533 370.8 539.067C373.333 554.8 386.8 580.8 399.866 595.333C410.4 606.933 416.533 616.667 422.133 630.267C425.333 638.267 428 644.933 428 645.333C428 645.733 426.666 644 425.2 641.6C423.6 639.333 421.866 637.333 421.333 637.333C420.133 637.333 417.333 644.667 417.333 648C417.333 649.333 416.133 654.267 414.666 659.067C412.133 667.067 411.333 668.133 405.466 671.867C397.466 676.667 396.266 679.867 399.866 685.867C402.266 689.6 402.4 690.533 400.8 692.667C399.333 694.667 396.133 695.333 383.2 696.267C355.6 698.267 353.333 698.667 350.4 701.6C348.133 703.867 347.733 705.6 348.267 712.533C348.933 722.667 352.933 731.467 356.666 731.067C358.133 730.933 363.866 730 369.333 729.067C379.066 727.467 379.2 727.467 374 726.533C369.2 725.733 369.066 725.733 372.8 725.467C375.066 725.467 378.933 725.733 381.333 726.133L385.6 727.067L381.733 728.667C379.6 729.6 372.8 731.467 366.533 732.667C354.133 735.333 348.933 737.467 344 742C342.133 743.733 337.067 746.533 332.667 748.267C328.267 750 320.533 754.133 315.333 757.467C310.267 760.8 303.2 765.2 299.733 767.467C296.133 769.6 293.466 771.867 293.733 772.533C294.533 774.933 322.267 803.6 334.667 814.8C360.4 838.267 409.866 876.933 411.333 874.8C411.733 874.133 422 865.867 434 856.667C446.133 847.333 463.333 833.2 472.4 825.333C493.333 806.933 529.067 770.4 545.867 750C553.2 741.2 560.267 732.8 561.6 731.2C564 728.4 564 728.4 556.133 723.6C550.533 720 546.8 718.667 542.933 718.667C535.6 718.667 533.333 716.133 533.333 707.867C533.333 701.867 532.933 700.933 529.333 698.933C520.933 694.267 522.933 685.2 535.2 672.933C539.733 668.4 545.467 663.067 547.733 661.2L552 657.6L552.267 638.533C552.933 602.4 552.667 601.333 541.467 588.133C530.667 575.467 529.333 573.333 529.333 567.6C529.333 561.467 532 555.867 538.267 548.8C544.8 541.6 548.4 532.933 547.333 527.067C546.933 524.533 547.067 521.733 547.733 520.933C551.2 516.667 566 486.4 569.867 475.6C572.4 468.933 574.8 462.267 575.333 461.067C577.733 454.933 595.2 455.6 600.133 461.867C603.2 465.733 608 466.133 609.067 462.667C609.733 460.933 609.467 460.933 607.467 462.533C604.8 464.8 602.133 462.933 603.467 459.6C604.4 456.933 608.8 456.533 609.733 458.933C610.133 459.867 610.533 459.333 610.533 457.733C610.667 455.867 609.6 454.533 607.733 454C606 453.467 603.067 451.6 601.2 449.733C599.2 448 595.333 445.6 592.533 444.667C588 443.067 587.333 442.4 587.6 439.2C588.133 433.333 589.067 432 592.667 432C595.467 432 596.533 430.933 598.8 425.6C603.2 415.6 605.2 406.4 603.733 403.6C602.8 401.733 603.067 400.4 604.8 398.533C608.267 394.667 605.733 391.467 598.8 390.667L593.2 390L590 380.667C588.4 375.467 585.6 365.6 584 358.667C578.533 335.333 575.733 326 571.733 318C564.267 303.2 549.067 276.8 540.667 264C535.333 256.133 531.333 248.267 530 243.333C528.8 238.933 526.4 232.933 524.667 229.867C519.067 220.267 505.733 209.2 490.267 201.333C482.533 197.333 476.267 194 476.4 193.733C476.667 193.6 482.4 195.467 489.2 198C506.4 204.4 508.667 204.133 502 196.267C500.133 194 498.667 190.933 498.667 189.333C498.667 187.733 497.467 184.933 496 183.067C493.067 179.2 492.667 175.733 494.8 171.867C496.933 167.733 493.867 160.667 487.6 155.333C484.133 152.267 482.533 150.133 483.467 149.6C485.333 148.533 492 134.933 492 132.4C492 131.467 491.2 130.667 490.4 130.667C489.467 130.667 489.733 130 491.067 129.2C492.533 128.4 493.333 126.267 493.333 123.333C493.333 120.8 494 118.4 494.667 118C497.467 116.267 495.733 112 490.4 107.467C484.533 102.4 481.2 101.6 478.8 104.533C476.533 107.2 471.067 107.867 468.4 105.867C466.267 104.4 466.4 104.133 470 104.533C478 105.467 481.333 100.667 475.733 96.8C472.4 94.4 463.333 93.8666 462 96C461.467 96.8 459.6 96.4 456.933 95.0666C453.733 93.3333 449.2 92.6666 439.333 92.5333C432 92.5333 424.4 92 422.4 91.4666C419.333 90.5333 418.533 90.9333 417.2 93.7333C416.133 96.1333 416.133 97.7333 417.2 99.8666C418.533 102.267 418.266 103.467 415.333 107.2C411.733 112 411.066 116.667 413.733 120.267C415.066 122 417.866 122.4 427.333 122.533C433.733 122.533 439.333 122.933 439.733 123.333C440.133 123.733 435.333 124 428.933 124C418.666 124 417.466 124.267 416.666 126.667C415.466 130.533 416.933 132.133 421.066 131.333C424.266 130.667 424.133 130.8 420.4 132.533C415.466 134.8 414.533 138.667 418.666 138.667C421.333 138.667 421.333 138.8 418.133 143.6C415.2 147.867 414.933 148.933 416.4 151.333C417.333 152.8 418.266 155.733 418.4 158C418.533 160.133 419.333 162.533 420 163.2C420.8 164 421.333 166.8 421.333 169.6C421.333 176.267 423.733 177.333 435.333 176C445.2 174.933 448 175.333 442.133 176.8L438.533 177.6L439.333 191.2C439.733 200.133 439.6 203.733 438.8 202C438.133 200.533 437.466 198 437.466 196.267C437.333 193.067 436.533 193.067 429.733 195.6C428.933 195.867 424.933 193.2 420.8 189.467C411.6 181.2 406.933 178.667 400.266 178.667C394 178.667 378.933 171.467 369.2 163.733C365.333 160.667 357.333 155.733 351.467 152.8C342.533 148.267 339.6 145.867 334 138.8C330.4 134 322.533 124.8 316.667 118.4C300 99.8666 298.267 97.3333 299.333 91.6C299.867 88.8 302 84.5333 304.133 81.8666C307.333 77.8666 308 75.7333 308 70C308 62.2666 305.867 59.2 301.333 60.4C299.333 60.9333 298.667 60.4 298.667 58.5333C298.667 57.2 299.6 56 300.667 56C303.6 56 304.8 51.8666 302.4 50.1333C301.333 49.3333 300 47.0666 299.467 44.9333C298.533 41.2 296.8 40.5333 293.466 42.5333ZM444 95.7333C444 96.2666 442.666 97.4666 441.066 98.5333C438 100.4 438 100.4 440.533 97.4666C443.2 94.5333 444 94.1333 444 95.7333ZM462 141.467C464.667 142.267 462.133 142.4 454 142C439.733 141.2 422.133 138.533 423.866 137.333C425.466 136.4 456.4 139.733 462 141.467ZM288 161.2C288 161.867 287.066 162.667 286 163.2C284 163.867 283.333 162.533 284.933 160.933C286.133 159.6 288 159.733 288 161.2ZM257.866 225.333C260.533 239.6 265.6 269.333 269.333 291.333C273.066 313.333 276.266 332.533 276.666 334.133C277.2 336.8 276.8 336.8 249.333 336.8C233.866 336.8 221.333 336.533 221.333 336.133C221.333 335.733 222 332.667 222.8 329.333C223.6 326 225.866 314.267 228 303.333C230.133 292.267 234 273.067 236.666 260.667C239.333 248.133 243.2 228.933 245.466 218C247.6 206.933 249.733 196.533 250.266 194.667L251.066 191.333L252.133 195.333C252.666 197.467 255.333 211.067 257.866 225.333ZM323.867 213.6C324.667 217.467 328.667 240.4 332.667 264.667C336.667 288.8 341.733 318.8 344 331.333C346.133 343.733 348 354.4 348 354.933C348 355.6 335.6 356 320.533 356H293.066L294 348.933C295.066 341.867 301.6 306.133 309.733 263.333C312.267 250.133 315.733 232 317.333 222.933C318.933 214 320.8 206.667 321.333 206.667C322 206.667 323.067 209.867 323.867 213.6ZM458.8 235.467C463.467 239.867 466.533 245.333 471.333 258.267C473.2 263.2 475.733 268.667 476.667 270.267C477.733 272 479.6 274.8 480.8 276.667C484.667 282.667 481.6 280.133 476.133 272.933C473.2 269.067 469.067 261.6 466.8 256.267C460.267 240 453.467 233.333 443.333 233.333C440.133 233.333 438.8 232.8 439.466 231.867C440 230.933 443.066 230.533 447.6 230.933C453.2 231.467 455.6 232.4 458.8 235.467ZM415.2 244.267C408.4 251.6 407.6 253.2 405.2 262.4C402.666 272.267 401.866 269.333 404.133 258.667C405.2 253.467 407.066 250.267 411.2 245.867C417.733 239.2 421.2 237.733 415.2 244.267ZM419.333 253.733C416.533 260.667 416.8 272.8 420.133 280C421.6 283.333 425.333 288.667 428.4 291.867L434 297.733L429.6 295.2C414.533 286.667 409.733 270.667 417.333 253.733C420.533 246.533 422.266 246.667 419.333 253.733ZM512.933 274.667C518.4 283.067 524.533 291.733 526.667 294C534.933 303.2 539.867 311.067 541.333 317.733C542.133 321.6 548.133 335.2 554.533 348.133C571.733 382 573.733 388.133 573.867 405.733C574 418.933 574.267 420.4 576.933 422.533L579.733 424.933L573.6 429.733C567.467 434.4 567.467 434.4 564.267 432C562.533 430.533 558.4 429.067 554.933 428.533C551.467 428.133 547.333 426.933 545.867 426C540.8 422.8 533.333 426.533 533.333 432.267C533.333 433.6 534 434.667 534.8 434.667C535.467 434.667 535.733 434.133 535.333 433.333C534.267 431.467 537.067 426.667 539.333 426.667C542.4 426.667 542.667 428.8 540 431.733C538.533 433.333 537.333 434.8 537.333 435.067C537.333 435.467 540.667 435.6 544.8 435.467C551.867 435.333 552.4 435.6 557.467 440.933C564.133 448.133 564.267 452.8 558.133 462.667C555.6 466.667 551.867 472.667 549.867 475.733C547.867 478.933 543.067 488.933 539.067 497.733C535.067 506.667 524 530 514.533 549.6C505.067 569.333 497.333 585.6 497.333 586C497.333 586.4 490.4 600.8 481.867 618.133C459.2 664.4 442.666 700 435.866 717.067C435.333 718.667 435.066 720 435.466 720C435.866 720 440.933 710 446.8 697.6C452.667 685.333 464.933 660 474 641.333C483.067 622.667 493.467 600.667 497.067 592.667C500.8 584.533 510.4 564.133 518.4 547.333C526.4 530.4 536.933 507.6 542 496.667C551.467 475.467 554.267 471.333 559.467 470.267C563.467 469.6 563.2 470.667 556.133 486C535.2 531.067 429.466 742.667 425.066 748.267C422.666 751.333 428.533 731.6 435.066 714.667C438.266 706.133 463.6 650 490.533 591.867C506.933 556.4 509.2 550.533 508.133 547.467C507.333 545.6 505.867 536.933 504.667 528.267C502.8 514.133 502.8 511.2 504.8 498.667C505.867 490.933 507.467 484 508.267 483.333C509.2 482.4 509.467 483.2 508.8 486C506.933 494.533 506.4 515.333 507.733 523.867C508.533 528.667 509.6 535.2 510 538.267C510.533 541.467 511.333 544 511.733 544C512.267 543.867 517.333 533.733 523.067 521.333L533.467 498.8L530.533 490.4C526.8 480 525.467 478.4 516.133 473.2C508.533 468.933 497.333 459.2 497.333 456.8C497.333 456.133 499.333 457.333 501.733 459.6C508 465.467 512.133 468 515.733 468H518.933L515.6 464C509.867 457.333 508.533 447.467 511.067 432.267C512.267 425.2 513.6 417.2 513.867 414.667C514.667 407.867 512.267 388.8 509.867 382.267C503.867 366.4 499.2 352.4 495.2 338C492.667 329.2 489.6 321.067 488.267 319.733C486.8 318.133 482.133 317.067 474 316.133L462 314.8L475.333 315.2L488.667 315.733L488.933 311.067C489.067 307.2 488.533 306.133 484.933 303.867C482.533 302.533 476.8 300 472 298.533C459.467 294.4 443.733 286 438.133 280.4C432 274.267 431.866 271.733 438 277.067C448.8 286.667 470.533 295.733 485.6 296.933L494.667 297.733V292C494.667 287.867 495.6 285.333 498.133 282.4C500.267 279.733 501.2 277.6 500.533 276.133C500 274.933 499.467 269.6 499.333 264.133C499.2 252.8 497.867 251.733 512.933 274.667ZM482.133 305.333C488 307.6 485.333 307.867 476 306C467.867 304.4 467.733 304.267 472.933 304.133C476 304.133 480.133 304.667 482.133 305.333ZM415.466 328.4C415.6 336.4 416.8 339.867 422.266 348C424.266 350.933 424.133 350.933 420.266 347.333C414.4 342 411.2 331.2 413.333 324.667C414.133 322.133 414.933 320 415.066 320C415.2 320 415.333 323.733 415.466 328.4ZM458.4 324.533C464 330.933 464.667 336.933 461.333 352C453.867 385.467 451.866 396.667 450.666 413.867C449.866 424.133 449.066 432.8 448.666 433.067C448.266 433.467 448 426.8 448 418.133C448 402.267 451.733 373.333 455.333 360.4C456.4 356.667 457.733 348.267 458.133 341.733C458.933 330.667 458.8 329.733 455.467 324.933C451.2 318.8 453.067 318.533 458.4 324.533ZM571.867 325.6C573.2 328.8 575.867 337.867 577.867 346C583.2 367.2 583.067 366.533 580.8 362.533C579.6 360.533 577.2 352.8 575.467 345.2C573.6 337.6 571.2 328.8 570.133 325.6C569.067 322.533 568.4 320 568.8 320C569.2 320 570.533 322.533 571.867 325.6ZM479.467 330C480.4 332.533 481.333 336.533 481.333 338.933C481.333 345.067 472.8 378.8 472.267 374.8C472 372.933 472.667 367.6 473.733 362.8C478.267 343.6 479.067 335.333 476.8 330.133C475.733 327.467 475.333 325.333 476.133 325.333C476.933 325.333 478.4 327.467 479.467 330ZM233.2 351.467C233.466 351.733 232.933 352 231.866 352C230.8 352 228.533 350.667 226.666 349.2L223.333 346.533L228 348.8C230.533 350 232.933 351.2 233.2 351.467ZM301.467 368C304.933 369.6 310.267 370.667 314.667 370.667C319.867 370.667 321.467 371.067 320.4 372.133C318.267 374.267 307.067 372.4 299.2 368.667C291.333 364.933 293.333 364.267 301.467 368ZM490.133 469.2C484.8 479.333 482.4 492.533 481.333 516C480.267 540.8 480.133 541.6 468.667 573.2C466.8 578.667 464.267 588.933 463.333 595.867L461.467 608.667L461.867 594C462.133 581.2 462.8 577.467 467.2 564.667C474.533 543.067 476 535.467 476 520C476 510.667 476.933 502.267 478.667 494.667C481.6 482.933 488.8 465.333 490.933 465.333C491.6 465.333 491.2 467.067 490.133 469.2ZM418.666 555.333C419.733 557.467 422.266 562 424.266 565.333C430.4 574.933 433.6 585.2 435.333 600C436.266 607.733 437.466 616.4 437.866 619.333C438.266 622.533 437.066 620 434.8 613.067C432.666 606.667 430.533 598 430 593.733C429.333 588.4 426.8 581.333 421.6 570.8C412.933 553.2 411.6 546.8 413.733 534.667L415.333 526L416.133 538.667C416.533 545.6 417.733 553.067 418.666 555.333ZM511.467 617.333C510.933 626.133 510 636.4 509.333 640.133C505.867 658.267 504.4 673.6 504.933 684.133C505.6 694.267 505.333 696.533 502.667 701.733C501.067 704.933 498.267 709.467 496.4 711.467C493.6 714.8 493.733 714.267 497.333 707.6C501.467 700 501.6 699.333 500.933 687.6C500.667 680.533 501.067 670.533 502.133 664C504 652 507.067 630.533 509.6 612.267C510.533 606.267 511.467 601.333 511.733 601.333C512.133 601.333 512 608.533 511.467 617.333ZM429.466 660.533C430.133 661.333 430.666 662.533 430.666 663.2C430.666 664 429.733 663.467 428.666 662.133C427.6 660.667 426.8 658.267 426.8 656.8C426.933 654.133 426.933 654 427.6 656.667C428 658.133 428.8 659.867 429.466 660.533ZM406.266 706.667C399.866 708.667 379.2 709.733 372.4 708.533C366.933 707.467 368.933 707.2 385.333 706.667C396 706.267 405.866 705.867 407.333 705.733C408.8 705.6 408.4 706 406.266 706.667ZM389.333 716C383.466 717.333 366.133 718.8 366.933 718C367.866 716.933 382.4 714.933 388.666 714.933H394L389.333 716Z" fill="white"/>
<path d="M510.8 190.133C512.667 194.133 520.133 205.333 524.8 210.933C527.867 214.533 532.4 221.2 534.667 225.733C537.067 230.267 539.2 234.133 539.333 234.4C539.467 234.533 552.4 237.333 568.133 240.667C620.8 251.467 720.667 275.333 732.533 280L736.4 281.467L735.6 305.733C732.8 380.4 721.2 446.533 698.8 514.133C687.733 547.6 678.267 570.533 661.333 604.667C637.067 653.333 615.6 687.2 576.933 737.2C567.2 749.733 538.8 781.067 521.333 798.667C492.8 827.2 452.933 862.267 419.867 888L409.6 895.867L392.533 882.4C326.933 831.067 280.133 785.2 234.4 727.6C187.6 668.667 151.6 603.867 125.467 531.333C100.133 461.467 84.6667 377.867 83.7333 306L83.3333 280.8L103.333 275.067C114.4 272 144.267 264.267 169.733 257.867C195.333 251.467 216.4 245.6 216.667 244.8C219.067 235.2 225.2 206.133 224.933 205.867C224.533 205.333 148.933 224.4 129.333 229.867C102.933 237.333 83.0667 242.933 75.3333 245.333C70.9333 246.667 62.9333 249.067 57.7333 250.533L48 253.467V277.733C48.1333 395.733 72.6667 506.533 121.067 607.067C164.133 696.533 226.8 776.533 298.8 834.133C325.733 855.6 358.933 876.667 392.533 893.733L409.867 902.4L421.867 896.4C496.8 858.8 562.933 803.6 621.467 730C647.867 696.8 678.267 647.467 698.533 605.2C745.467 506.8 769.333 400.933 769.867 288.667L770 252.667L748 246.267C725.867 239.867 662 223.6 630 216.133C599.6 209.2 524.8 192.267 520 191.333C517.467 190.8 514.267 190.133 512.8 189.733C511.467 189.333 510.533 189.6 510.8 190.133Z" fill="white"/>
<path d="M348.267 203.6C348.934 207.2 350.267 213.867 351.2 218.533L352.8 227.067L364.667 226.8C371.2 226.667 376.8 226.267 377.067 226C378.134 224.933 373.067 217.6 367.734 212.533C359.734 205.067 350 197.333 348.4 197.333C347.467 197.333 347.467 199.467 348.267 203.6Z" fill="white"/>
<path d="M283.734 205.867C281.067 206.667 278.534 207.733 278 208.133C277.6 208.667 278.4 213.467 280 218.8C281.467 224.133 282.667 230.267 282.667 232.133C282.667 235.733 285.2 237.867 287.6 236.267C288.667 235.467 292 212.8 292 206C292 203.733 290.534 203.733 283.734 205.867Z" fill="white"/>
<path d="M186.666 262C173.066 265.2 146.133 272 126.666 277.067L91.333 286.133L91.5997 310.8C92.933 423.867 128.8 548.8 188.666 648.667C203.333 672.933 215.333 690 239.333 720.667C256 741.867 298.933 789.333 301.6 789.333C302.266 789.333 297.866 783.733 291.733 776.933C258.8 740.8 236 710.667 207.066 665.333C177.466 618.933 148.133 555.6 132.666 504.667C130.666 498 128.266 490 127.2 486.667C121.2 466.667 109.866 413.733 106.666 390C101.466 351.333 98.133 293.333 101.2 291.467C104.4 289.467 164.8 270.667 187.733 264.533C200.666 261.067 211.866 257.733 212.666 257.067C214.4 255.467 213.866 255.6 186.666 262Z" fill="white"/>
<path d="M605.334 257.733C605.734 258.133 617.734 261.467 632.001 265.2C657.067 271.6 712.667 288.267 717.201 290.533C719.067 291.6 719.201 294.533 718.401 317.6C716.401 378 706.667 434.933 687.867 498C665.867 571.467 635.601 631.6 578.934 714.133C560.934 740.533 559.334 742.667 543.601 761.333L531.867 775.333L543.334 763.333C562.801 743.2 596.667 699.733 615.334 671.333C667.867 590.933 700.934 506.267 717.867 408C723.601 374.933 728.001 328.4 728.001 301.467V286L712.934 282.133C691.334 276.667 651.467 267.2 630.667 262.533C606.534 257.2 604.534 256.8 605.334 257.733Z" fill="white"/>
</svg>
